<svg width="75" height="190" viewBox="0 0 75 190" fill="none" xmlns="http://www.w3.org/2000/svg">
<path fill-rule="evenodd" clip-rule="evenodd" d="M47.443 190C47.443 177.533 46.0603 161.198 45.8944 155.231C45.8392 153.264 46.151 150.816 47.443 153.279C50.5626 159.224 52.7305 166.631 53.0757 173.872C53.5002 172.268 54.0504 170.673 54.9215 168.513C60.7222 154.134 64.2604 137.968 64.2849 122.172C64.3058 109.1 62.0237 95.4274 55.564 83.4616C50.7164 87.9054 45.4253 91.8403 39.4879 95.2401C26.833 102.487 8.08818 105.817 1.34511 90.6331C-4.26005 78.0099 8.56509 66.4213 22.9392 64.9239C33.3014 63.8444 40.8631 67.2408 47.9313 71.4079C50.9193 73.1697 53.5526 75.3338 55.8553 77.8303C81.6632 46.6905 48.9533 5.78842 13 -2.71011e-06C57.2808 1.64512 83.3419 53.5341 58.0747 80.4685C76.2066 104.08 69.9322 151.069 55.1182 175.092C58.7802 171.921 63.9652 169.217 68.9157 167.431C69.6484 167.166 72.4603 165.9 73.9915 165.993C74.5603 166.027 74.954 166.25 74.9978 166.78C75.0226 167.082 74.8374 167.404 74.4657 167.741C73.3822 168.719 69.3209 170.823 65.3778 172.914C59.5279 176.017 50.5 182.021 47.443 190ZM53.0477 81.0385C47.9605 85.7018 41.9927 90.0059 35.7124 93.4449C25.5915 98.9874 13.5317 100.968 6.95933 92.9517C2.89213 87.9909 3.14321 82.5881 6.41187 77.9546C18.1854 61.2661 44.6418 69.3279 53.0477 81.0385Z" fill="#FF9A51"/>
</svg>
