<svg width="58" height="76" viewBox="0 0 58 76" fill="none" xmlns="http://www.w3.org/2000/svg">
<mask id="path-1-inside-1_295_1512" fill="white">
<path d="M50.4875 42.746C50.2285 42.746 49.98 42.8454 49.7969 43.0222C49.6137 43.199 49.5108 43.4389 49.5108 43.689C49.5076 46.4388 48.3746 49.0752 46.3604 51.0197C44.3462 52.9641 41.6153 54.0579 38.7668 54.061C37.042 54.0618 35.3428 54.4634 33.8127 55.2319C32.2827 56.0004 30.9667 57.1132 29.9762 58.4762V38.9744H38.7668C39.0258 38.9744 39.2742 38.875 39.4574 38.6982C39.6406 38.5214 39.7435 38.2815 39.7435 38.0315C39.7435 37.7814 39.6406 37.5416 39.4574 37.3647C39.2742 37.1879 39.0258 37.0886 38.7668 37.0886H29.9762V29.4769C31.687 29.2385 33.2408 28.3834 34.3249 27.0836C35.4089 25.7838 35.9428 24.1359 35.819 22.4715C35.6952 20.8071 34.923 19.2497 33.6577 18.1127C32.3924 16.9758 30.728 16.3438 28.9995 16.3438C27.2709 16.3438 25.6065 16.9758 24.3412 18.1127C23.0759 19.2497 22.3037 20.8071 22.1799 22.4715C22.0561 24.1359 22.59 25.7838 23.674 27.0836C24.7581 28.3834 26.3119 29.2385 28.0227 29.4769V37.0886H19.2322C18.9731 37.0886 18.7247 37.1879 18.5415 37.3647C18.3583 37.5416 18.2554 37.7814 18.2554 38.0315C18.2554 38.2815 18.3583 38.5214 18.5415 38.6982C18.7247 38.875 18.9731 38.9744 19.2322 38.9744H28.0227V58.4762C27.0322 57.1132 25.7162 56.0004 24.1862 55.2319C22.6561 54.4634 20.9569 54.0618 19.2322 54.061C16.3837 54.0579 13.6527 52.9641 11.6385 51.0197C9.62435 49.0752 8.49136 46.4388 8.48813 43.689C8.48813 43.4389 8.38522 43.199 8.20205 43.0222C8.01888 42.8454 7.77044 42.746 7.5114 42.746C7.25235 42.746 7.00392 42.8454 6.82075 43.0222C6.63757 43.199 6.53467 43.4389 6.53467 43.689C6.53855 46.9388 7.87756 50.0545 10.258 52.3525C12.6384 54.6505 15.8658 55.9431 19.2322 55.9469C21.5636 55.9469 23.7995 56.8409 25.448 58.4324C27.0966 60.0239 28.0227 62.1824 28.0227 64.4331C28.0227 64.6832 28.1256 64.923 28.3088 65.0998C28.492 65.2767 28.7404 65.376 28.9995 65.376C29.2585 65.376 29.5069 65.2767 29.6901 65.0998C29.8733 64.923 29.9762 64.6832 29.9762 64.4331C29.9762 62.1824 30.9023 60.0239 32.5509 58.4324C34.1994 56.8409 36.4354 55.9469 38.7668 55.9469C42.1331 55.9431 45.3606 54.6505 47.741 52.3525C50.1214 50.0545 51.4604 46.9388 51.4642 43.689C51.4642 43.4389 51.3613 43.199 51.1782 43.0222C50.995 42.8454 50.7466 42.746 50.4875 42.746ZM24.1158 22.9448C24.1158 22.0124 24.4022 21.1009 24.9389 20.3255C25.4755 19.5502 26.2382 18.946 27.1306 18.5891C28.0229 18.2323 29.0049 18.1389 29.9522 18.3208C30.8995 18.5027 31.7697 18.9518 32.4527 19.6111C33.1357 20.2705 33.6008 21.1105 33.7893 22.0251C33.9777 22.9396 33.881 23.8875 33.5114 24.749C33.1417 25.6105 32.5158 26.3468 31.7127 26.8648C30.9096 27.3829 29.9654 27.6594 28.9995 27.6594C27.7042 27.6594 26.4621 27.1627 25.5462 26.2785C24.6303 25.3944 24.1158 24.1952 24.1158 22.9448Z"/>
</mask>
<path d="M50.4875 42.746C50.2285 42.746 49.98 42.8454 49.7969 43.0222C49.6137 43.199 49.5108 43.4389 49.5108 43.689C49.5076 46.4388 48.3746 49.0752 46.3604 51.0197C44.3462 52.9641 41.6153 54.0579 38.7668 54.061C37.042 54.0618 35.3428 54.4634 33.8127 55.2319C32.2827 56.0004 30.9667 57.1132 29.9762 58.4762V38.9744H38.7668C39.0258 38.9744 39.2742 38.875 39.4574 38.6982C39.6406 38.5214 39.7435 38.2815 39.7435 38.0315C39.7435 37.7814 39.6406 37.5416 39.4574 37.3647C39.2742 37.1879 39.0258 37.0886 38.7668 37.0886H29.9762V29.4769C31.687 29.2385 33.2408 28.3834 34.3249 27.0836C35.4089 25.7838 35.9428 24.1359 35.819 22.4715C35.6952 20.8071 34.923 19.2497 33.6577 18.1127C32.3924 16.9758 30.728 16.3438 28.9995 16.3438C27.2709 16.3438 25.6065 16.9758 24.3412 18.1127C23.0759 19.2497 22.3037 20.8071 22.1799 22.4715C22.0561 24.1359 22.59 25.7838 23.674 27.0836C24.7581 28.3834 26.3119 29.2385 28.0227 29.4769V37.0886H19.2322C18.9731 37.0886 18.7247 37.1879 18.5415 37.3647C18.3583 37.5416 18.2554 37.7814 18.2554 38.0315C18.2554 38.2815 18.3583 38.5214 18.5415 38.6982C18.7247 38.875 18.9731 38.9744 19.2322 38.9744H28.0227V58.4762C27.0322 57.1132 25.7162 56.0004 24.1862 55.2319C22.6561 54.4634 20.9569 54.0618 19.2322 54.061C16.3837 54.0579 13.6527 52.9641 11.6385 51.0197C9.62435 49.0752 8.49136 46.4388 8.48813 43.689C8.48813 43.4389 8.38522 43.199 8.20205 43.0222C8.01888 42.8454 7.77044 42.746 7.5114 42.746C7.25235 42.746 7.00392 42.8454 6.82075 43.0222C6.63757 43.199 6.53467 43.4389 6.53467 43.689C6.53855 46.9388 7.87756 50.0545 10.258 52.3525C12.6384 54.6505 15.8658 55.9431 19.2322 55.9469C21.5636 55.9469 23.7995 56.8409 25.448 58.4324C27.0966 60.0239 28.0227 62.1824 28.0227 64.4331C28.0227 64.6832 28.1256 64.923 28.3088 65.0998C28.492 65.2767 28.7404 65.376 28.9995 65.376C29.2585 65.376 29.5069 65.2767 29.6901 65.0998C29.8733 64.923 29.9762 64.6832 29.9762 64.4331C29.9762 62.1824 30.9023 60.0239 32.5509 58.4324C34.1994 56.8409 36.4354 55.9469 38.7668 55.9469C42.1331 55.9431 45.3606 54.6505 47.741 52.3525C50.1214 50.0545 51.4604 46.9388 51.4642 43.689C51.4642 43.4389 51.3613 43.199 51.1782 43.0222C50.995 42.8454 50.7466 42.746 50.4875 42.746ZM24.1158 22.9448C24.1158 22.0124 24.4022 21.1009 24.9389 20.3255C25.4755 19.5502 26.2382 18.946 27.1306 18.5891C28.0229 18.2323 29.0049 18.1389 29.9522 18.3208C30.8995 18.5027 31.7697 18.9518 32.4527 19.6111C33.1357 20.2705 33.6008 21.1105 33.7893 22.0251C33.9777 22.9396 33.881 23.8875 33.5114 24.749C33.1417 25.6105 32.5158 26.3468 31.7127 26.8648C30.9096 27.3829 29.9654 27.6594 28.9995 27.6594C27.7042 27.6594 26.4621 27.1627 25.5462 26.2785C24.6303 25.3944 24.1158 24.1952 24.1158 22.9448Z" fill="#FF9A51"/>
<path d="M49.5108 43.689L79.5108 43.7242L79.5108 43.7066V43.689H49.5108ZM38.7668 54.061L38.7798 84.061H38.7897L38.7996 84.061L38.7668 54.061ZM29.9762 58.4762H-0.0238137V150.789L54.2447 76.1126L29.9762 58.4762ZM29.9762 38.9744V8.97438H-0.0238137V38.9744H29.9762ZM29.9762 37.0886H-0.0238137V67.0886H29.9762V37.0886ZM29.9762 29.4769L25.836 -0.236071L-0.0238137 3.36725V29.4769H29.9762ZM28.9995 16.3438V-13.6562V16.3438ZM28.0227 29.4769H58.0227V3.36725L32.1629 -0.236071L28.0227 29.4769ZM28.0227 37.0886V67.0886H58.0227V37.0886H28.0227ZM28.0227 38.9744H58.0227V8.97438H28.0227V38.9744ZM28.0227 58.4762L3.75423 76.1126L58.0227 150.789V58.4762H28.0227ZM19.2322 54.061L19.1993 84.061L19.2092 84.061H19.2191L19.2322 54.061ZM8.48813 43.689H-21.5119V43.7066L-21.5119 43.7242L8.48813 43.689ZM6.53467 43.689H-23.4653V43.7069L-23.4653 43.7248L6.53467 43.689ZM19.2322 55.9469L19.1988 85.9468L19.2155 85.9469H19.2322V55.9469ZM28.0227 64.4331H-1.97727H28.0227ZM29.9762 64.4331H59.9762H29.9762ZM38.7668 55.9469V85.9469H38.7834L38.8001 85.9468L38.7668 55.9469ZM51.4642 43.689L81.4642 43.7248L81.4642 43.7069V43.689H51.4642ZM28.9995 27.6594V-2.3406V27.6594ZM50.4875 12.746C42.6064 12.746 34.8445 15.7585 28.9606 21.4387L70.6332 64.6057C65.1156 69.9323 57.8505 72.746 50.4875 72.746V12.746ZM28.9606 21.4387C23.0407 27.1536 19.5108 35.1346 19.5108 43.689H79.5108C79.5108 51.7432 76.1867 59.2445 70.6332 64.6057L28.9606 21.4387ZM19.5108 43.6537C19.5173 38.1118 21.8102 33.0214 25.5241 29.4361L67.1967 72.6032C74.9389 65.129 79.4978 54.7659 79.5108 43.7242L19.5108 43.6537ZM25.5241 29.4361C29.2022 25.8853 33.9714 24.0663 38.7339 24.061L38.7996 84.061C49.2591 84.0496 59.4901 80.0429 67.1967 72.6032L25.5241 29.4361ZM38.7537 24.061C32.3933 24.0638 26.0839 25.5423 20.3477 28.4234L47.2777 82.0403C44.6017 83.3844 41.6907 84.0598 38.7798 84.061L38.7537 24.061ZM20.3477 28.4234C14.6076 31.3064 9.5622 35.5359 5.70769 40.8399L54.2447 76.1126C52.3713 78.6904 49.9577 80.6943 47.2777 82.0403L20.3477 28.4234ZM59.9762 58.4762V38.9744H-0.0238137V58.4762H59.9762ZM29.9762 68.9744H38.7668V8.97438H29.9762V68.9744ZM38.7668 68.9744C46.6478 68.9744 54.4098 65.962 60.2937 60.2817L18.6211 17.1147C24.1387 11.7881 31.4038 8.97438 38.7668 8.97438V68.9744ZM60.2937 60.2817C66.2136 54.5668 69.7435 46.5858 69.7435 38.0315H9.74349C9.74349 29.9772 13.0676 22.476 18.6211 17.1147L60.2937 60.2817ZM69.7435 38.0315C69.7435 29.4771 66.2136 21.4961 60.2937 15.7812L18.6211 58.9482C13.0676 53.587 9.74349 46.0857 9.74349 38.0315H69.7435ZM60.2937 15.7812C54.4098 10.101 46.6478 7.08855 38.7668 7.08855V67.0886C31.4038 67.0886 24.1387 64.2748 18.6211 58.9482L60.2937 15.7812ZM38.7668 7.08855H29.9762V67.0886H38.7668V7.08855ZM59.9762 37.0886V29.4769H-0.0238137V37.0886H59.9762ZM34.1164 59.1898C43.0443 57.9458 51.3959 53.4538 57.3634 46.2988L11.2863 7.86835C15.0858 3.31294 20.3297 0.531179 25.836 -0.236071L34.1164 59.1898ZM57.3634 46.2988C63.3587 39.1106 66.447 29.801 65.7364 20.2465L5.90164 24.6965C5.43862 18.4708 7.45913 12.4571 11.2863 7.86835L57.3634 46.2988ZM65.7364 20.2465C65.0264 10.7 60.6082 1.99735 53.7088 -4.20213L13.6066 40.4276C9.23776 36.502 6.36405 30.9141 5.90164 24.6965L65.7364 20.2465ZM53.7088 -4.20213C46.8394 -10.3747 37.9987 -13.6562 28.9995 -13.6562V46.3438C23.4573 46.3438 17.9455 44.3263 13.6066 40.4276L53.7088 -4.20213ZM28.9995 -13.6562C20.0002 -13.6562 11.1595 -10.3747 4.29011 -4.20213L44.3923 40.4276C40.0535 44.3263 34.5416 46.3438 28.9995 46.3438V-13.6562ZM4.29011 -4.20213C-2.60932 1.99738 -7.02749 10.7 -7.73747 20.2465L52.0973 24.6965C51.6349 30.9141 48.7612 36.5019 44.3923 40.4276L4.29011 -4.20213ZM-7.73747 20.2465C-8.44806 29.801 -5.35987 39.1106 0.635501 46.2988L46.7126 7.86835C50.5398 12.4571 52.5603 18.4709 52.0973 24.6965L-7.73747 20.2465ZM0.635501 46.2988C6.60306 53.4538 14.9546 57.9458 23.8825 59.1898L32.1629 -0.236071C37.6692 0.531178 42.9131 3.31293 46.7126 7.86835L0.635501 46.2988ZM-1.97727 29.4769V37.0886H58.0227V29.4769H-1.97727ZM28.0227 7.08855H19.2322V67.0886H28.0227V7.08855ZM19.2322 7.08855C11.3511 7.08855 3.58914 10.101 -2.2948 15.7812L39.3778 58.9482C33.8602 64.2748 26.5951 67.0886 19.2322 67.0886V7.08855ZM-2.2948 15.7812C-8.21467 21.4961 -11.7446 29.4771 -11.7446 38.0315H48.2554C48.2554 46.0857 44.9313 53.587 39.3778 58.9482L-2.2948 15.7812ZM-11.7446 38.0315C-11.7446 46.5858 -8.21467 54.5668 -2.2948 60.2817L39.3778 17.1147C44.9313 22.476 48.2554 29.9772 48.2554 38.0315H-11.7446ZM-2.2948 60.2817C3.58914 65.962 11.3511 68.9744 19.2322 68.9744V8.97438C26.5951 8.97438 33.8602 11.7881 39.3778 17.1147L-2.2948 60.2817ZM19.2322 68.9744H28.0227V8.97438H19.2322V68.9744ZM-1.97727 38.9744V58.4762H58.0227V38.9744H-1.97727ZM52.2912 40.8399C48.4367 35.5359 43.3913 31.3064 37.6512 28.4234L10.7212 82.0403C8.04123 80.6943 5.62762 78.6904 3.75423 76.1126L52.2912 40.8399ZM37.6512 28.4234C31.9151 25.5423 25.6056 24.0638 19.2452 24.061L19.2191 84.061C16.3082 84.0598 13.3972 83.3844 10.7212 82.0403L37.6512 28.4234ZM19.265 24.061C24.0275 24.0663 28.7967 25.8853 32.4748 29.4361L-9.19775 72.6032C-1.49122 80.0429 8.73978 84.0496 19.1993 84.061L19.265 24.061ZM32.4748 29.4361C36.1887 33.0214 38.4816 38.1118 38.4881 43.6537L-21.5119 43.7242C-21.4989 54.7659 -16.94 65.129 -9.19775 72.6032L32.4748 29.4361ZM38.4881 43.689C38.4881 35.1345 34.9582 27.1536 29.0383 21.4387L-12.6343 64.6057C-18.1877 59.2445 -21.5119 51.7433 -21.5119 43.689H38.4881ZM29.0383 21.4387C23.1544 15.7585 15.3925 12.746 7.5114 12.746V72.746C0.148378 72.746 -7.11668 69.9323 -12.6343 64.6057L29.0383 21.4387ZM7.5114 12.746C-0.369711 12.746 -8.13164 15.7585 -14.0156 21.4387L27.657 64.6057C22.1395 69.9323 14.8744 72.746 7.5114 72.746V12.746ZM-14.0156 21.4387C-19.9354 27.1536 -23.4653 35.1345 -23.4653 43.689H36.5347C36.5347 51.7433 33.2105 59.2445 27.657 64.6057L-14.0156 21.4387ZM-23.4653 43.7248C-23.4515 55.2662 -18.6867 66.1084 -10.5783 73.936L31.0943 30.7689C34.4418 34.0006 36.5286 38.6114 36.5346 43.6532L-23.4653 43.7248ZM-10.5783 73.936C-2.50574 81.7291 8.22156 85.9346 19.1988 85.9468L19.2655 25.9469C23.51 25.9516 27.7825 27.5718 31.0943 30.7689L-10.5783 73.936ZM19.2322 85.9469C13.9414 85.9469 8.66387 83.9278 4.61173 80.0159L46.2843 36.8489C38.9351 29.7541 29.1857 25.9469 19.2322 25.9469V85.9469ZM4.61173 80.0159C0.523641 76.0694 -1.97727 70.4868 -1.97727 64.4331H58.0227C58.0227 53.878 53.6695 43.9784 46.2843 36.8489L4.61173 80.0159ZM-1.97727 64.4331C-1.97727 72.9875 1.55262 80.9684 7.4725 86.6834L49.1451 43.5163C54.6986 48.8776 58.0227 56.3789 58.0227 64.4331H-1.97727ZM7.4725 86.6834C13.3564 92.3636 21.1184 95.376 28.9995 95.376V35.376C36.3624 35.376 43.6275 38.1897 49.1451 43.5163L7.4725 86.6834ZM28.9995 95.376C36.8805 95.376 44.6425 92.3636 50.5264 86.6834L8.85381 43.5163C14.3714 38.1897 21.6365 35.376 28.9995 35.376V95.376ZM50.5264 86.6834C56.4463 80.9684 59.9762 72.9875 59.9762 64.4331H-0.0238137C-0.0238137 56.3789 3.30028 48.8776 8.85381 43.5163L50.5264 86.6834ZM59.9762 64.4331C59.9762 70.4868 57.4753 76.0694 53.3872 80.0159L11.7146 36.8489C4.3294 43.9784 -0.0238137 53.878 -0.0238137 64.4331H59.9762ZM53.3872 80.0159C49.335 83.9278 44.0575 85.9469 38.7668 85.9469V25.9469C28.8132 25.9469 19.0638 29.7541 11.7146 36.8489L53.3872 80.0159ZM38.8001 85.9468C49.7774 85.9346 60.5047 81.7291 68.5773 73.936L26.9047 30.7689C30.2165 27.5718 34.4889 25.9516 38.7334 25.9469L38.8001 85.9468ZM68.5773 73.936C76.6856 66.1084 81.4505 55.2662 81.4642 43.7248L21.4643 43.6532C21.4703 38.6114 23.5571 34.0006 26.9047 30.7689L68.5773 73.936ZM81.4642 43.689C81.4642 35.1346 77.9343 27.1536 72.0145 21.4387L30.3419 64.6057C24.7883 59.2445 21.4642 51.7432 21.4642 43.689H81.4642ZM72.0145 21.4387C66.1305 15.7585 58.3686 12.746 50.4875 12.746V72.746C43.1245 72.746 35.8595 69.9323 30.3419 64.6057L72.0145 21.4387ZM54.1158 22.9448C54.1158 28.186 52.5005 33.2179 49.6065 37.3991L0.271156 3.25203C-3.69603 8.98379 -5.88419 15.8387 -5.88419 22.9448H54.1158ZM49.6065 37.3991C46.7221 41.5665 42.7355 44.6587 38.2692 46.4446L15.9919 -9.2664C9.7409 -6.7668 4.22884 -2.46601 0.271156 3.25203L49.6065 37.3991ZM38.2692 46.4446C33.8108 48.2274 28.9622 48.6788 24.2948 47.7826L35.6096 -11.1409C29.0475 -12.401 22.235 -11.7629 15.9919 -9.2664L38.2692 46.4446ZM24.2948 47.7826C19.6232 46.8855 15.1927 44.6471 11.6164 41.1946L53.289 -1.97242C48.3467 -6.74359 42.1759 -9.88001 35.6096 -11.1409L24.2948 47.7826ZM11.6164 41.1946C8.02879 37.7312 5.4592 33.1883 4.40651 28.0792L63.172 15.9709C61.7425 9.03276 58.2426 2.8097 53.289 -1.97242L11.6164 41.1946ZM4.40651 28.0792C3.35214 22.9621 3.90375 17.6702 5.94197 12.9199L61.0807 36.5782C63.8582 30.1049 64.6033 22.9171 63.172 15.9709L4.40651 28.0792ZM5.94197 12.9199C7.97457 8.18262 11.3414 4.30544 15.4509 1.65463L47.9744 52.0751C53.6901 48.3882 58.3089 43.0384 61.0807 36.5782L5.94197 12.9199ZM15.4509 1.65463C19.5498 -0.989347 24.2624 -2.3406 28.9995 -2.3406V57.6594C35.6683 57.6594 42.2693 55.7551 47.9744 52.0751L15.4509 1.65463ZM28.9995 -2.3406C35.3263 -2.3406 41.5977 0.0758152 46.3825 4.695L4.70989 47.8621C11.3265 54.2496 20.0821 57.6594 28.9995 57.6594V-2.3406ZM46.3825 4.695C51.2033 9.34889 54.1158 15.8908 54.1158 22.9448H-5.88419C-5.88419 32.4996 -1.94261 41.4399 4.70989 47.8621L46.3825 4.695Z" fill="#FF9A51" mask="url(#path-1-inside-1_295_1512)"/>
<path d="M57.25 29.0108C57.25 44.619 44.6018 57.2715 29 57.2715C13.3982 57.2715 0.75 44.619 0.75 29.0108C0.75 13.4025 13.3982 0.75 29 0.75C44.6018 0.75 57.25 13.4025 57.25 29.0108Z" stroke="#FF9A51" stroke-width="1.5"/>
<path d="M48.2636 65.7854C48.2636 71.013 44.0274 75.2504 38.8023 75.2504C33.5773 75.2504 29.3411 71.013 29.3411 65.7854C29.3411 60.5577 33.5773 56.3203 38.8023 56.3203C44.0274 56.3203 48.2636 60.5577 48.2636 65.7854Z" stroke="#FF9A51" stroke-width="1.5"/>
</svg>
